<mxfile host="65bd71144e">
    <diagram id="MR0eQ068Gq2AColCQrst" name="Page-1">
        <mxGraphModel dx="1465" dy="1577" grid="1" gridSize="10" guides="1" tooltips="1" connect="1" arrows="1" fold="1" page="1" pageScale="1" pageWidth="827" pageHeight="1169" math="0" shadow="0">
            <root>
                <mxCell id="0"/>
                <mxCell id="1" parent="0"/>
                <mxCell id="pNaxqqhV66uy22TF9aAl-10" value="Authentification" style="swimlane;childLayout=stackLayout;horizontal=1;startSize=30;horizontalStack=0;rounded=1;fontSize=14;fontStyle=0;strokeWidth=2;resizeParent=0;resizeLast=1;shadow=0;dashed=0;align=center;" parent="1" vertex="1">
                    <mxGeometry x="430" y="80" width="160" height="80" as="geometry"/>
                </mxCell>
                <mxCell id="pNaxqqhV66uy22TF9aAl-11" value="- GET /login&#10;- POST /register&#10;" style="align=left;strokeColor=none;fillColor=none;spacingLeft=4;fontSize=12;verticalAlign=top;resizable=0;rotatable=0;part=1;" parent="pNaxqqhV66uy22TF9aAl-10" vertex="1">
                    <mxGeometry y="30" width="160" height="50" as="geometry"/>
                </mxCell>
                <mxCell id="pNaxqqhV66uy22TF9aAl-23" style="edgeStyle=orthogonalEdgeStyle;rounded=0;orthogonalLoop=1;jettySize=auto;html=1;" parent="1" target="pNaxqqhV66uy22TF9aAl-21" edge="1">
                    <mxGeometry relative="1" as="geometry">
                        <mxPoint x="220" y="140" as="sourcePoint"/>
                    </mxGeometry>
                </mxCell>
                <mxCell id="pNaxqqhV66uy22TF9aAl-26" style="edgeStyle=orthogonalEdgeStyle;rounded=0;orthogonalLoop=1;jettySize=auto;html=1;entryX=0.5;entryY=0;entryDx=0;entryDy=0;" parent="1" target="pNaxqqhV66uy22TF9aAl-24" edge="1">
                    <mxGeometry relative="1" as="geometry">
                        <mxPoint x="310" y="170" as="sourcePoint"/>
                        <Array as="points">
                            <mxPoint x="310" y="180"/>
                            <mxPoint x="310" y="280"/>
                            <mxPoint x="414" y="280"/>
                        </Array>
                    </mxGeometry>
                </mxCell>
                <mxCell id="pNaxqqhV66uy22TF9aAl-29" style="edgeStyle=orthogonalEdgeStyle;rounded=0;orthogonalLoop=1;jettySize=auto;html=1;entryX=0;entryY=0.25;entryDx=0;entryDy=0;startArrow=none;startFill=0;endArrow=classic;endFill=1;" parent="1" target="pNaxqqhV66uy22TF9aAl-28" edge="1">
                    <mxGeometry relative="1" as="geometry">
                        <mxPoint x="290" y="150" as="sourcePoint"/>
                        <Array as="points">
                            <mxPoint x="370" y="148"/>
                            <mxPoint x="370" y="263"/>
                        </Array>
                    </mxGeometry>
                </mxCell>
                <mxCell id="pNaxqqhV66uy22TF9aAl-45" style="edgeStyle=orthogonalEdgeStyle;rounded=0;orthogonalLoop=1;jettySize=auto;html=1;entryX=0.619;entryY=0.008;entryDx=0;entryDy=0;entryPerimeter=0;startArrow=none;startFill=0;endArrow=classic;endFill=1;" parent="1" target="pNaxqqhV66uy22TF9aAl-36" edge="1">
                    <mxGeometry relative="1" as="geometry">
                        <mxPoint x="260" y="180" as="sourcePoint"/>
                    </mxGeometry>
                </mxCell>
                <mxCell id="y_ZF34hRIbTw_WtplV_c-10" style="edgeStyle=orthogonalEdgeStyle;html=1;entryX=1;entryY=0.25;entryDx=0;entryDy=0;" edge="1" parent="1" target="G-UL045DSSbIxcrI9Xsv-10">
                    <mxGeometry relative="1" as="geometry">
                        <mxPoint x="220" y="113" as="sourcePoint"/>
                    </mxGeometry>
                </mxCell>
                <mxCell id="XvbOmnKLZOWLbQdNF9PU-14" style="edgeStyle=orthogonalEdgeStyle;html=1;entryX=0.75;entryY=0;entryDx=0;entryDy=0;" edge="1" parent="1" target="GBYfCNDF68BNnmZ-rHsy-11">
                    <mxGeometry relative="1" as="geometry">
                        <mxPoint x="-50" y="360" as="targetPoint"/>
                        <mxPoint x="240" y="180" as="sourcePoint"/>
                        <Array as="points">
                            <mxPoint x="240" y="260"/>
                            <mxPoint y="260"/>
                            <mxPoint y="360"/>
                            <mxPoint x="-80" y="360"/>
                        </Array>
                    </mxGeometry>
                </mxCell>
                <mxCell id="pNaxqqhV66uy22TF9aAl-12" value="" style="shape=umlActor;verticalLabelPosition=bottom;verticalAlign=top;html=1;" parent="1" vertex="1">
                    <mxGeometry x="238" y="88" width="30" height="60" as="geometry"/>
                </mxCell>
                <mxCell id="pNaxqqhV66uy22TF9aAl-19" style="edgeStyle=orthogonalEdgeStyle;rounded=0;orthogonalLoop=1;jettySize=auto;html=1;exitX=0;exitY=0.25;exitDx=0;exitDy=0;startArrow=classic;startFill=1;" parent="1" source="pNaxqqhV66uy22TF9aAl-11" edge="1">
                    <mxGeometry relative="1" as="geometry">
                        <mxPoint x="280" y="123" as="targetPoint"/>
                    </mxGeometry>
                </mxCell>
                <mxCell id="pNaxqqhV66uy22TF9aAl-21" value="Player" style="swimlane;childLayout=stackLayout;horizontal=1;startSize=30;horizontalStack=0;rounded=1;fontSize=14;fontStyle=0;strokeWidth=2;resizeParent=0;resizeLast=1;shadow=0;dashed=0;align=center;" parent="1" vertex="1">
                    <mxGeometry x="60" y="300" width="169" height="140" as="geometry"/>
                </mxCell>
                <mxCell id="pNaxqqhV66uy22TF9aAl-22" value="+ GET /player : rÃ©cuperer les&#10;informations du joueur&#10;+ PUT /player: modifier les &#10;informations du joueur&#10;+ POST /player/pokemon/&lt;id&gt;&#10;&#10;" style="align=left;strokeColor=none;fillColor=none;spacingLeft=4;fontSize=12;verticalAlign=top;resizable=0;rotatable=0;part=1;" parent="pNaxqqhV66uy22TF9aAl-21" vertex="1">
                    <mxGeometry y="30" width="169" height="110" as="geometry"/>
                </mxCell>
                <mxCell id="pNaxqqhV66uy22TF9aAl-24" value="Administration" style="swimlane;childLayout=stackLayout;horizontal=1;startSize=30;horizontalStack=0;rounded=1;fontSize=14;fontStyle=0;strokeWidth=2;resizeParent=0;resizeLast=1;shadow=0;dashed=0;align=center;" parent="1" vertex="1">
                    <mxGeometry x="334" y="300" width="160" height="120" as="geometry"/>
                </mxCell>
                <mxCell id="pNaxqqhV66uy22TF9aAl-25" value="+ PUT /player/&lt;id&gt;&#10;+ DELETE /player/&lt;id&gt;&#10;" style="align=left;strokeColor=none;fillColor=none;spacingLeft=4;fontSize=12;verticalAlign=top;resizable=0;rotatable=0;part=1;" parent="pNaxqqhV66uy22TF9aAl-24" vertex="1">
                    <mxGeometry y="30" width="160" height="90" as="geometry"/>
                </mxCell>
                <mxCell id="pNaxqqhV66uy22TF9aAl-27" value="Stats" style="swimlane;childLayout=stackLayout;horizontal=1;startSize=30;horizontalStack=0;rounded=1;fontSize=14;fontStyle=0;strokeWidth=2;resizeParent=0;resizeLast=1;shadow=0;dashed=0;align=center;" parent="1" vertex="1">
                    <mxGeometry x="580" y="210" width="160" height="120" as="geometry"/>
                </mxCell>
                <mxCell id="pNaxqqhV66uy22TF9aAl-28" value="+ GET /stats/player&#10;+ GET /stats/pokemon&#10;+ GET /stats/matchs&#10;...&#10;" style="align=left;strokeColor=none;fillColor=none;spacingLeft=4;fontSize=12;verticalAlign=top;resizable=0;rotatable=0;part=1;" parent="pNaxqqhV66uy22TF9aAl-27" vertex="1">
                    <mxGeometry y="30" width="160" height="90" as="geometry"/>
                </mxCell>
                <mxCell id="pNaxqqhV66uy22TF9aAl-31" value="&lt;div&gt;Reporter&lt;/div&gt;&lt;div&gt;Stats&lt;br&gt;&lt;/div&gt;" style="shape=datastore;whiteSpace=wrap;html=1;" parent="1" vertex="1">
                    <mxGeometry x="720" y="250" width="60" height="60" as="geometry"/>
                </mxCell>
                <mxCell id="pNaxqqhV66uy22TF9aAl-32" value="User" style="shape=datastore;whiteSpace=wrap;html=1;" parent="1" vertex="1">
                    <mxGeometry x="580" y="90" width="60" height="60" as="geometry"/>
                </mxCell>
                <mxCell id="pNaxqqhV66uy22TF9aAl-33" value="&lt;div&gt;Admin&lt;/div&gt;" style="shape=datastore;whiteSpace=wrap;html=1;" parent="1" vertex="1">
                    <mxGeometry x="470" y="340" width="60" height="60" as="geometry"/>
                </mxCell>
                <mxCell id="pNaxqqhV66uy22TF9aAl-34" value="Player&lt;br&gt;Team" style="shape=datastore;whiteSpace=wrap;html=1;" parent="1" vertex="1">
                    <mxGeometry x="2" y="350" width="60" height="60" as="geometry"/>
                </mxCell>
                <mxCell id="pNaxqqhV66uy22TF9aAl-36" value="Store" style="swimlane;childLayout=stackLayout;horizontal=1;startSize=30;horizontalStack=0;rounded=1;fontSize=14;fontStyle=0;strokeWidth=2;resizeParent=0;resizeLast=1;shadow=0;dashed=0;align=center;" parent="1" vertex="1">
                    <mxGeometry x="160" y="460" width="160" height="120" as="geometry"/>
                </mxCell>
                <mxCell id="G-UL045DSSbIxcrI9Xsv-8" value="+ GET /pokemons&#10;+ POST /pokemon/buy/&lt;id&gt;" style="align=left;strokeColor=none;fillColor=none;spacingLeft=4;fontSize=12;verticalAlign=top;resizable=0;rotatable=0;part=1;" vertex="1" parent="pNaxqqhV66uy22TF9aAl-36">
                    <mxGeometry y="30" width="160" height="90" as="geometry"/>
                </mxCell>
                <mxCell id="pNaxqqhV66uy22TF9aAl-46" value="&lt;div&gt;Pokemon&lt;/div&gt;" style="shape=datastore;whiteSpace=wrap;html=1;" parent="1" vertex="1">
                    <mxGeometry x="172" y="552" width="60" height="60" as="geometry"/>
                </mxCell>
                <mxCell id="2" value="Pokemon" style="swimlane;childLayout=stackLayout;horizontal=1;startSize=30;horizontalStack=0;rounded=1;fontSize=14;fontStyle=0;strokeWidth=2;resizeParent=0;resizeLast=1;shadow=0;dashed=0;align=center;" parent="1" vertex="1">
                    <mxGeometry x="200" y="700" width="160" height="120" as="geometry"/>
                </mxCell>
                <mxCell id="3" value="- GET /pokemon/&lt;id&gt;" style="align=left;strokeColor=none;fillColor=none;spacingLeft=4;fontSize=12;verticalAlign=top;resizable=0;rotatable=0;part=1;" parent="2" vertex="1">
                    <mxGeometry y="30" width="160" height="90" as="geometry"/>
                </mxCell>
                <mxCell id="4" style="edgeStyle=none;html=1;exitX=0.25;exitY=1;exitDx=0;exitDy=0;entryX=0.25;entryY=0;entryDx=0;entryDy=0;" parent="1" target="2" edge="1">
                    <mxGeometry relative="1" as="geometry">
                        <mxPoint x="240" y="580" as="sourcePoint"/>
                    </mxGeometry>
                </mxCell>
                <mxCell id="5" style="edgeStyle=none;html=1;exitX=0.5;exitY=1;exitDx=0;exitDy=0;" parent="1" source="3" edge="1">
                    <mxGeometry relative="1" as="geometry">
                        <mxPoint x="280" y="910" as="targetPoint"/>
                    </mxGeometry>
                </mxCell>
                <mxCell id="6" value="PokeAPI" style="rounded=1;arcSize=10;whiteSpace=wrap;html=1;align=center;" parent="1" vertex="1">
                    <mxGeometry x="230" y="910" width="100" height="40" as="geometry"/>
                </mxCell>
                <mxCell id="8" style="edgeStyle=orthogonalEdgeStyle;html=1;exitX=0.25;exitY=1;exitDx=0;exitDy=0;entryX=0;entryY=0.5;entryDx=0;entryDy=0;" edge="1" parent="1" source="pNaxqqhV66uy22TF9aAl-22" target="2">
                    <mxGeometry relative="1" as="geometry"/>
                </mxCell>
                <mxCell id="G-UL045DSSbIxcrI9Xsv-9" value="Match" style="swimlane;childLayout=stackLayout;horizontal=1;startSize=30;horizontalStack=0;rounded=1;fontSize=14;fontStyle=0;strokeWidth=2;resizeParent=0;resizeLast=1;shadow=0;dashed=0;align=center;" vertex="1" parent="1">
                    <mxGeometry x="-129" width="199" height="240" as="geometry"/>
                </mxCell>
                <mxCell id="G-UL045DSSbIxcrI9Xsv-10" value="- POST /match/create: crÃ©ation&#10;d'un match par un joueur&#10;- POST /match/join: rejoindre&#10;un match crÃ©Ã© par un autreÂ &#10;joueur&#10;- GET /match: liste des&#10;matchs ouvert&#10;- GET /match/&lt;id&gt; : dÃ©tailsÂ &#10;d'une manche&#10;- POST /match/&lt;id&gt;/next_round :&#10;joue le prochain round si possible&#10;- GET /match/&lt;id&gt;/current_round&#10;- GET /match/&lt;id&gt;/round/&lt;id&gt;" style="align=left;strokeColor=none;fillColor=none;spacingLeft=4;fontSize=12;verticalAlign=top;resizable=0;rotatable=0;part=1;" vertex="1" parent="G-UL045DSSbIxcrI9Xsv-9">
                    <mxGeometry y="30" width="199" height="210" as="geometry"/>
                </mxCell>
                <mxCell id="G-UL045DSSbIxcrI9Xsv-11" value="Match" style="shape=datastore;whiteSpace=wrap;html=1;" vertex="1" parent="1">
                    <mxGeometry x="-72" y="233" width="60" height="60" as="geometry"/>
                </mxCell>
                <mxCell id="GBYfCNDF68BNnmZ-rHsy-11" value="Notifications" style="swimlane;childLayout=stackLayout;horizontal=1;startSize=30;horizontalStack=0;rounded=1;fontSize=14;fontStyle=0;strokeWidth=2;resizeParent=0;resizeLast=1;shadow=0;dashed=0;align=center;" vertex="1" parent="1">
                    <mxGeometry x="-200" y="370" width="160" height="120" as="geometry"/>
                </mxCell>
                <mxCell id="GBYfCNDF68BNnmZ-rHsy-12" value="+ GET /notifications&#10;+ POST /notifications/send" style="align=left;strokeColor=none;fillColor=none;spacingLeft=4;fontSize=12;verticalAlign=top;resizable=0;rotatable=0;part=1;" vertex="1" parent="GBYfCNDF68BNnmZ-rHsy-11">
                    <mxGeometry y="30" width="160" height="90" as="geometry"/>
                </mxCell>
                <mxCell id="GBYfCNDF68BNnmZ-rHsy-13" value="Notifications" style="shape=datastore;whiteSpace=wrap;html=1;" vertex="1" parent="1">
                    <mxGeometry x="-161" y="455" width="85" height="60" as="geometry"/>
                </mxCell>
                <mxCell id="XvbOmnKLZOWLbQdNF9PU-12" style="edgeStyle=orthogonalEdgeStyle;html=1;exitX=0.75;exitY=1;exitDx=0;exitDy=0;entryX=0.25;entryY=0;entryDx=0;entryDy=0;" edge="1" parent="1" source="G-UL045DSSbIxcrI9Xsv-10" target="pNaxqqhV66uy22TF9aAl-21">
                    <mxGeometry relative="1" as="geometry"/>
                </mxCell>
                <mxCell id="XvbOmnKLZOWLbQdNF9PU-13" style="edgeStyle=orthogonalEdgeStyle;html=1;exitX=1;exitY=0.5;exitDx=0;exitDy=0;" edge="1" parent="1" source="GBYfCNDF68BNnmZ-rHsy-12">
                    <mxGeometry relative="1" as="geometry">
                        <mxPoint x="60" y="420" as="targetPoint"/>
                    </mxGeometry>
                </mxCell>
            </root>
        </mxGraphModel>
    </diagram>
    <diagram id="3wZDOnNrvEnNDS1Ge0Uy" name="Page-2">
        <mxGraphModel dx="1195" dy="1560" grid="1" gridSize="10" guides="1" tooltips="1" connect="1" arrows="1" fold="1" page="1" pageScale="1" pageWidth="827" pageHeight="1169" math="0" shadow="0">
            <root>
                <mxCell id="vUboQ4MSPHkfi0_xwSxE-0"/>
                <mxCell id="vUboQ4MSPHkfi0_xwSxE-1" parent="vUboQ4MSPHkfi0_xwSxE-0"/>
                <mxCell id="vcKAPIw8EYsq9DQg_tWI-9" value="" style="group" parent="vUboQ4MSPHkfi0_xwSxE-1" vertex="1" connectable="0">
                    <mxGeometry x="200" y="-30" width="250" height="220" as="geometry"/>
                </mxCell>
                <mxCell id="vcKAPIw8EYsq9DQg_tWI-8" value="Authentification" style="verticalAlign=top;align=left;spacingTop=8;spacingLeft=2;spacingRight=12;shape=cube;size=10;direction=south;fontStyle=4;html=1;" parent="vcKAPIw8EYsq9DQg_tWI-9" vertex="1">
                    <mxGeometry width="250" height="220" as="geometry"/>
                </mxCell>
                <mxCell id="vcKAPIw8EYsq9DQg_tWI-0" value="User" style="swimlane;childLayout=stackLayout;horizontal=1;startSize=30;horizontalStack=0;rounded=1;fontSize=14;fontStyle=0;strokeWidth=2;resizeParent=0;resizeLast=1;shadow=0;dashed=0;align=center;" parent="vcKAPIw8EYsq9DQg_tWI-9" vertex="1">
                    <mxGeometry x="40" y="70" width="160" height="120" as="geometry"/>
                </mxCell>
                <mxCell id="vcKAPIw8EYsq9DQg_tWI-1" value="id: int&#10;login: String&#10;password: String" style="align=left;strokeColor=none;fillColor=none;spacingLeft=4;fontSize=12;verticalAlign=top;resizable=0;rotatable=0;part=1;" parent="vcKAPIw8EYsq9DQg_tWI-0" vertex="1">
                    <mxGeometry y="30" width="160" height="90" as="geometry"/>
                </mxCell>
                <mxCell id="vcKAPIw8EYsq9DQg_tWI-10" value="" style="group" parent="vUboQ4MSPHkfi0_xwSxE-1" vertex="1" connectable="0">
                    <mxGeometry x="-110" y="260" width="400" height="210" as="geometry"/>
                </mxCell>
                <mxCell id="vcKAPIw8EYsq9DQg_tWI-7" value="Player" style="verticalAlign=top;align=left;spacingTop=8;spacingLeft=2;spacingRight=12;shape=cube;size=10;direction=south;fontStyle=4;html=1;" parent="vcKAPIw8EYsq9DQg_tWI-10" vertex="1">
                    <mxGeometry width="400" height="210" as="geometry"/>
                </mxCell>
                <mxCell id="vcKAPIw8EYsq9DQg_tWI-3" value="Player" style="swimlane;childLayout=stackLayout;horizontal=1;startSize=30;horizontalStack=0;rounded=1;fontSize=14;fontStyle=0;strokeWidth=2;resizeParent=0;resizeLast=1;shadow=0;dashed=0;align=center;" parent="vcKAPIw8EYsq9DQg_tWI-10" vertex="1">
                    <mxGeometry x="210" y="46.66666666666667" width="160" height="140" as="geometry"/>
                </mxCell>
                <mxCell id="vcKAPIw8EYsq9DQg_tWI-4" value="user_id: int&#10;username: String&#10;credits: int&#10;team_id: int" style="align=left;strokeColor=none;fillColor=none;spacingLeft=4;fontSize=12;verticalAlign=top;resizable=0;rotatable=0;part=1;" parent="vcKAPIw8EYsq9DQg_tWI-3" vertex="1">
                    <mxGeometry y="30" width="160" height="110" as="geometry"/>
                </mxCell>
                <mxCell id="vcKAPIw8EYsq9DQg_tWI-5" value="Team" style="swimlane;childLayout=stackLayout;horizontal=1;startSize=30;horizontalStack=0;rounded=1;fontSize=14;fontStyle=0;strokeWidth=2;resizeParent=0;resizeLast=1;shadow=0;dashed=0;align=center;" parent="vcKAPIw8EYsq9DQg_tWI-10" vertex="1">
                    <mxGeometry x="20" y="46.66666666666667" width="160" height="140" as="geometry"/>
                </mxCell>
                <mxCell id="vcKAPIw8EYsq9DQg_tWI-6" value="user_id: int&#10;pokemon1: int&#10;pokemon2: int&#10;pokemon3: int&#10;pokemon4: int&#10;pokemon5: int" style="align=left;strokeColor=none;fillColor=none;spacingLeft=4;fontSize=12;verticalAlign=top;resizable=0;rotatable=0;part=1;" parent="vcKAPIw8EYsq9DQg_tWI-5" vertex="1">
                    <mxGeometry y="30" width="160" height="110" as="geometry"/>
                </mxCell>
                <mxCell id="BkhmUJMm5lx1LcOuwWUi-1" value="Administration" style="verticalAlign=top;align=left;spacingTop=8;spacingLeft=2;spacingRight=12;shape=cube;size=10;direction=south;fontStyle=4;html=1;" parent="vUboQ4MSPHkfi0_xwSxE-1" vertex="1">
                    <mxGeometry x="330" y="260" width="260" height="180" as="geometry"/>
                </mxCell>
                <mxCell id="BkhmUJMm5lx1LcOuwWUi-2" value="Administrator" style="swimlane;childLayout=stackLayout;horizontal=1;startSize=30;horizontalStack=0;rounded=1;fontSize=14;fontStyle=0;strokeWidth=2;resizeParent=0;resizeLast=1;shadow=0;dashed=0;align=center;" parent="vUboQ4MSPHkfi0_xwSxE-1" vertex="1">
                    <mxGeometry x="380" y="300" width="160" height="120" as="geometry"/>
                </mxCell>
                <mxCell id="BkhmUJMm5lx1LcOuwWUi-3" value="user_id : int" style="align=left;strokeColor=none;fillColor=none;spacingLeft=4;fontSize=12;verticalAlign=top;resizable=0;rotatable=0;part=1;" parent="BkhmUJMm5lx1LcOuwWUi-2" vertex="1">
                    <mxGeometry y="30" width="160" height="90" as="geometry"/>
                </mxCell>
                <mxCell id="POR0fzD1G4K47ahiT4bs-2" value="" style="group" parent="vUboQ4MSPHkfi0_xwSxE-1" vertex="1" connectable="0">
                    <mxGeometry x="510" y="-30" width="340" height="260" as="geometry"/>
                </mxCell>
                <mxCell id="BkhmUJMm5lx1LcOuwWUi-4" value="Stats" style="verticalAlign=top;align=left;spacingTop=8;spacingLeft=2;spacingRight=12;shape=cube;size=10;direction=south;fontStyle=4;html=1;" parent="POR0fzD1G4K47ahiT4bs-2" vertex="1">
                    <mxGeometry width="340" height="260" as="geometry"/>
                </mxCell>
                <mxCell id="uxQ-oEU5K8sPPwNiqE9f-1" value="Reporter" style="swimlane;childLayout=stackLayout;horizontal=1;startSize=30;horizontalStack=0;rounded=1;fontSize=14;fontStyle=0;strokeWidth=2;resizeParent=0;resizeLast=1;shadow=0;dashed=0;align=center;" parent="POR0fzD1G4K47ahiT4bs-2" vertex="1">
                    <mxGeometry x="20" y="50" width="110" height="70" as="geometry"/>
                </mxCell>
                <mxCell id="uxQ-oEU5K8sPPwNiqE9f-2" value="user_id: int" style="align=left;strokeColor=none;fillColor=none;spacingLeft=4;fontSize=12;verticalAlign=top;resizable=0;rotatable=0;part=1;" parent="uxQ-oEU5K8sPPwNiqE9f-1" vertex="1">
                    <mxGeometry y="30" width="110" height="40" as="geometry"/>
                </mxCell>
                <mxCell id="uxQ-oEU5K8sPPwNiqE9f-3" value="DailyMatch" style="swimlane;childLayout=stackLayout;horizontal=1;startSize=30;horizontalStack=0;rounded=1;fontSize=14;fontStyle=0;strokeWidth=2;resizeParent=0;resizeLast=1;shadow=0;dashed=0;align=center;" parent="POR0fzD1G4K47ahiT4bs-2" vertex="1">
                    <mxGeometry x="157" y="40" width="160" height="90" as="geometry"/>
                </mxCell>
                <mxCell id="uxQ-oEU5K8sPPwNiqE9f-4" value="date: DateTime&#10;count: int" style="align=left;strokeColor=none;fillColor=none;spacingLeft=4;fontSize=12;verticalAlign=top;resizable=0;rotatable=0;part=1;" parent="uxQ-oEU5K8sPPwNiqE9f-3" vertex="1">
                    <mxGeometry y="30" width="160" height="60" as="geometry"/>
                </mxCell>
                <mxCell id="POR0fzD1G4K47ahiT4bs-0" value="PokeStats" style="swimlane;childLayout=stackLayout;horizontal=1;startSize=30;horizontalStack=0;rounded=1;fontSize=14;fontStyle=0;strokeWidth=2;resizeParent=0;resizeLast=1;shadow=0;dashed=0;align=center;" parent="POR0fzD1G4K47ahiT4bs-2" vertex="1">
                    <mxGeometry x="30" y="150" width="140" height="90" as="geometry"/>
                </mxCell>
                <mxCell id="POR0fzD1G4K47ahiT4bs-1" value="- pokemon_id: int&#10;- won_matches: int&#10;- lose_matches" style="align=left;strokeColor=none;fillColor=none;spacingLeft=4;fontSize=12;verticalAlign=top;resizable=0;rotatable=0;part=1;" parent="POR0fzD1G4K47ahiT4bs-0" vertex="1">
                    <mxGeometry y="30" width="140" height="60" as="geometry"/>
                </mxCell>
                <mxCell id="AfnqrdBw2cS2bqxgfrZt-0" value="Match" style="verticalAlign=top;align=left;spacingTop=8;spacingLeft=2;spacingRight=12;shape=cube;size=10;direction=south;fontStyle=4;html=1;" vertex="1" parent="vUboQ4MSPHkfi0_xwSxE-1">
                    <mxGeometry x="620" y="260" width="400" height="240" as="geometry"/>
                </mxCell>
                <mxCell id="AfnqrdBw2cS2bqxgfrZt-1" value="Match" style="swimlane;childLayout=stackLayout;horizontal=1;startSize=30;horizontalStack=0;rounded=1;fontSize=14;fontStyle=0;strokeWidth=2;resizeParent=0;resizeLast=1;shadow=0;dashed=0;align=center;" vertex="1" parent="vUboQ4MSPHkfi0_xwSxE-1">
                    <mxGeometry x="640" y="300" width="160" height="130" as="geometry"/>
                </mxCell>
                <mxCell id="AfnqrdBw2cS2bqxgfrZt-2" value="- j1_id: int&#10;- j2_id: int&#10;- open: bool&#10;- status: int&#10;- round: int&#10;- winner_id: int" style="align=left;strokeColor=none;fillColor=none;spacingLeft=4;fontSize=12;verticalAlign=top;resizable=0;rotatable=0;part=1;" vertex="1" parent="AfnqrdBw2cS2bqxgfrZt-1">
                    <mxGeometry y="30" width="160" height="100" as="geometry"/>
                </mxCell>
                <mxCell id="AfnqrdBw2cS2bqxgfrZt-7" value="Round" style="swimlane;childLayout=stackLayout;horizontal=1;startSize=30;horizontalStack=0;rounded=1;fontSize=14;fontStyle=0;strokeWidth=2;resizeParent=0;resizeLast=1;shadow=0;dashed=0;align=center;" vertex="1" parent="vUboQ4MSPHkfi0_xwSxE-1">
                    <mxGeometry x="827" y="300" width="160" height="140" as="geometry"/>
                </mxCell>
                <mxCell id="AfnqrdBw2cS2bqxgfrZt-8" value="- match_id: int&#10;- id: int&#10;- pokemon_j1: int&#10;- pokemon_j2: int&#10;- status: int&#10;- pokemon_winner : int" style="align=left;strokeColor=none;fillColor=none;spacingLeft=4;fontSize=12;verticalAlign=top;resizable=0;rotatable=0;part=1;" vertex="1" parent="AfnqrdBw2cS2bqxgfrZt-7">
                    <mxGeometry y="30" width="160" height="110" as="geometry"/>
                </mxCell>
                <mxCell id="smI-Pv6DEhg0I_HsjbT5-1" value="Notifications" style="verticalAlign=top;align=left;spacingTop=8;spacingLeft=2;spacingRight=12;shape=cube;size=10;direction=south;fontStyle=4;html=1;" vertex="1" parent="vUboQ4MSPHkfi0_xwSxE-1">
                    <mxGeometry x="-140" y="-30" width="310" height="220" as="geometry"/>
                </mxCell>
                <mxCell id="smI-Pv6DEhg0I_HsjbT5-2" value="Notifications" style="swimlane;childLayout=stackLayout;horizontal=1;startSize=30;horizontalStack=0;rounded=1;fontSize=14;fontStyle=0;strokeWidth=2;resizeParent=0;resizeLast=1;shadow=0;dashed=0;align=center;" vertex="1" parent="vUboQ4MSPHkfi0_xwSxE-1">
                    <mxGeometry x="-90" y="40" width="160" height="120" as="geometry"/>
                </mxCell>
                <mxCell id="smI-Pv6DEhg0I_HsjbT5-3" value="from : int&#10;to : int&#10;read : bool&#10;content: String" style="align=left;strokeColor=none;fillColor=none;spacingLeft=4;fontSize=12;verticalAlign=top;resizable=0;rotatable=0;part=1;" vertex="1" parent="smI-Pv6DEhg0I_HsjbT5-2">
                    <mxGeometry y="30" width="160" height="90" as="geometry"/>
                </mxCell>
                <mxCell id="fbsEVh-RG8tZqf6jS_DO-0" value="Store" style="verticalAlign=top;align=left;spacingTop=8;spacingLeft=2;spacingRight=12;shape=cube;size=10;direction=south;fontStyle=4;html=1;" vertex="1" parent="vUboQ4MSPHkfi0_xwSxE-1">
                    <mxGeometry x="-10" y="490" width="200" height="180" as="geometry"/>
                </mxCell>
                <mxCell id="fbsEVh-RG8tZqf6jS_DO-1" value="Pokemon" style="swimlane;childLayout=stackLayout;horizontal=1;startSize=30;horizontalStack=0;rounded=1;fontSize=14;fontStyle=0;strokeWidth=2;resizeParent=0;resizeLast=1;shadow=0;dashed=0;align=center;" vertex="1" parent="vUboQ4MSPHkfi0_xwSxE-1">
                    <mxGeometry x="10" y="525" width="160" height="120" as="geometry"/>
                </mxCell>
                <mxCell id="fbsEVh-RG8tZqf6jS_DO-2" value="- pokemon_id: int&#10;- price: int" style="align=left;strokeColor=none;fillColor=none;spacingLeft=4;fontSize=12;verticalAlign=top;resizable=0;rotatable=0;part=1;" vertex="1" parent="fbsEVh-RG8tZqf6jS_DO-1">
                    <mxGeometry y="30" width="160" height="90" as="geometry"/>
                </mxCell>
            </root>
        </mxGraphModel>
    </diagram>
</mxfile>